<svg xmlns="http://www.w3.org/2000/svg" width="75" height="75" fill="none"><path fill="#00C4F0" d="M0 18.75s0-9.38 9.38-9.38h56.24s9.38 0 9.38 9.38v28.13s0 9.37-9.38 9.37H46.88c0 3.13.4 5.47 1.18 7.03h3.51a2.34 2.34 0 0 1 0 4.69H23.44a2.34 2.34 0 0 1 0-4.69h3.51c.79-1.56 1.18-3.9 1.18-7.03H9.38S0 56.25 0 46.87V18.75Zm6.55-4c-.51.35-.92.84-1.19 1.4-.4.83-.63 1.73-.67 2.65v28.07c0 1.53.36 2.36.68 2.83.33.49.8.88 1.41 1.19.8.38 1.65.6 2.52.67h56.32a4.9 4.9 0 0 0 2.83-.68c.51-.36.92-.84 1.19-1.41.38-.8.6-1.65.67-2.52v-28.2a4.9 4.9 0 0 0-.68-2.82 3.55 3.55 0 0 0-1.41-1.2 6.84 6.84 0 0 0-2.64-.67H9.38a4.9 4.9 0 0 0-2.83.68Z"/></svg>