<svg xmlns="http://www.w3.org/2000/svg" width="25" height="25" fill="none" viewBox="0 0 32 32"><rect width="28" height="28" x="2" y="2" fill="url(#a)" rx="6"/><rect width="28" height="28" x="2" y="2" fill="url(#b)" rx="6"/><rect width="28" height="28" x="2" y="2" fill="url(#c)" rx="6"/><path fill="#fff" d="M23 10.5a1.5 1.5 0 1 1-3 0 1.5 1.5 0 0 1 3 0Z"/><path fill="#fff" fill-rule="evenodd" d="M16 21a5 5 0 1 0 0-10 5 5 0 0 0 0 10Zm0-2a3 3 0 1 0 0-6 3 3 0 0 0 0 6Z" clip-rule="evenodd"/><path fill="#fff" fill-rule="evenodd" d="M6 15.6c0-3.36 0-5.04.65-6.32a6 6 0 0 1 2.63-2.63C10.56 6 12.24 6 15.6 6h.8c3.36 0 5.04 0 6.32.65a6 6 0 0 1 2.63 2.63c.65 1.28.65 2.96.65 6.32v.8c0 3.36 0 5.04-.65 6.32a6 6 0 0 1-2.63 2.63c-1.28.65-2.96.65-6.32.65h-.8c-3.36 0-5.04 0-6.32-.65a6 6 0 0 1-2.63-2.63C6 21.44 6 19.76 6 16.4v-.8ZM15.6 8h.8c1.71 0 2.88 0 3.78.08.87.07 1.32.2 1.64.36a4 4 0 0 1 1.74 1.74c.16.32.3.77.36 1.64.08.9.08 2.07.08 3.78v.8c0 1.71 0 2.88-.08 3.78-.07.87-.2 1.32-.36 1.64a4 4 0 0 1-1.74 1.74c-.32.16-.77.3-1.64.36-.9.08-2.07.08-3.78.08h-.8c-1.71 0-2.88 0-3.78-.08a4.32 4.32 0 0 1-1.64-.36 4 4 0 0 1-1.74-1.74 4.32 4.32 0 0 1-.36-1.64C8 19.28 8 18.1 8 16.4v-.8c0-1.71 0-2.88.08-3.78.07-.87.2-1.32.36-1.64a4 4 0 0 1 1.74-1.74c.32-.16.77-.3 1.64-.36C12.72 8 13.9 8 15.6 8Z" clip-rule="evenodd"/><defs><radialGradient id="a" cx="0" cy="0" r="1" gradientTransform="matrix(14.5 -21 21 14.5 12 23)" gradientUnits="userSpaceOnUse"><stop stop-color="#B13589"/><stop offset=".79" stop-color="#C62F94"/><stop offset="1" stop-color="#8A3AC8"/></radialGradient><radialGradient id="b" cx="0" cy="0" r="1" gradientTransform="matrix(9.5 -20.5 20.5 9.5 11 31)" gradientUnits="userSpaceOnUse"><stop stop-color="#E0E8B7"/><stop offset=".44" stop-color="#FB8A2E"/><stop offset=".71" stop-color="#E2425C"/><stop offset="1" stop-color="#E2425C" stop-opacity="0"/></radialGradient><radialGradient id="c" cx="0" cy="0" r="1" gradientTransform="matrix(38.5 -5.5 1.1764 8.2348 .5 3)" gradientUnits="userSpaceOnUse"><stop offset=".16" stop-color="#406ADC"/><stop offset=".47" stop-color="#6A45BE"/><stop offset="1" stop-color="#6A45BE" stop-opacity="0"/></radialGradient></defs></svg>