<svg xmlns="http://www.w3.org/2000/svg" width="75" height="75" fill="none" viewBox="0 0 96 96"><path fill="#00C4F0" fill-rule="evenodd" d="M63.5 78.64A2.34 2.34 0 0 1 61.15 81H34.63a2.34 2.34 0 0 1-2.34-2.35v-12.6L24.05 52.3a7.03 7.03 0 0 1-.16-6.95L47.9.78l24 44.58a7.03 7.03 0 0 1-.16 6.94L63.5 66.03v12.61Zm-3.67-15.6 7.88-13.15a2.34 2.34 0 0 0 .06-2.32L47.9 10.67l-19.88 36.9a2.34 2.34 0 0 0 .06 2.32l7.88 13.15h23.87Z" clip-rule="evenodd"/><path fill="#00C4F0" fill-rule="evenodd" d="m47.7 11.04-3.12 31.14a4.69 4.69 0 1 0 6.63 0l-3.12-31.14-.2-.37-.2.37Z" clip-rule="evenodd"/></svg>