<svg xmlns="http://www.w3.org/2000/svg" width="75" height="75" fill="none" viewBox="0 0 143 48"><path fill="#00C4F0" d="M.81 7.4v18.23c0 1.47.17 2.92.5 4.28 1.56 6.52 6.74 11.11 14.06 11.11 7.31 0 12.47-4.59 14.04-11.1.3-1.37.49-2.82.49-4.3V7.4h-7v18.35c0 1.08-.15 2.14-.43 3.14-.87 3.14-3.19 5.65-7.13 5.65-3.89 0-6.2-2.5-7.1-5.65-.28-1-.42-2.06-.42-3.14V7.4h-7ZM32.66 41h8.65l8.25-12.1L57.81 41h8.67L53.62 23.26 65.1 7.4h-8.6l-6.94 10.15-6.94-10.15h-8.6l11.49 15.85L32.66 41ZM89.2.97 67.8 47.73h7.38L96.58.97H89.2Zm11.13 6.42v18.24c0 1.47.16 2.92.49 4.28 1.57 6.52 6.75 11.11 14.06 11.11 7.31 0 12.47-4.59 14.04-11.1.3-1.37.5-2.82.5-4.3V7.4h-7.01v18.35c0 1.08-.14 2.14-.43 3.14-.86 3.14-3.18 5.65-7.12 5.65-3.9 0-6.21-2.5-7.1-5.65-.28-1-.42-2.06-.42-3.14V7.4h-7.01ZM135.4 41h7.03V7.4h-7.03V41Z"/></svg>