<?xml version="1.0" standalone="no"?>
<!DOCTYPE svg PUBLIC "-//W3C//DTD SVG 20010904//EN"
 "http://www.w3.org/TR/2001/REC-SVG-20010904/DTD/svg10.dtd">
<svg version="1.0" xmlns="http://www.w3.org/2000/svg"
 width="234.000000pt" height="234.000000pt" viewBox="0 0 234.000000 234.000000"
 preserveAspectRatio="xMidYMid meet">
<metadata>
Created by potrace 1.14, written by Peter Selinger 2001-2017
</metadata>
<g transform="translate(0.000000,234.000000) scale(0.100000,-0.100000)"
fill="#000000" stroke="none">
<path d="M1128 1988 c-20 -19 -74 -90 -162 -213 -25 -34 -229 -311 -353 -477
-132 -179 -101 -164 -268 -133 -50 10 -101 19 -115 22 -14 2 -43 8 -65 13 -63
15 -92 12 -120 -12 -51 -44 -47 -54 208 -448 129 -200 244 -375 255 -387 l20
-23 651 0 650 0 22 23 c11 12 49 65 82 118 128 198 254 393 326 502 89 135
100 181 55 216 -29 23 -56 24 -144 6 -14 -3 -75 -14 -135 -25 -61 -11 -124
-22 -141 -26 -28 -5 -33 -1 -93 81 -35 48 -98 133 -140 189 -42 57 -85 115
-96 131 -11 15 -41 55 -66 89 -26 33 -92 124 -149 201 -56 77 -112 148 -124
157 -29 24 -71 22 -98 -4z m309 -540 c139 -188 251 -343 250 -344 -1 -1 -20
-4 -42 -7 -22 -3 -60 -10 -85 -16 -25 -5 -61 -12 -80 -15 -45 -7 -83 -14 -145
-26 -143 -27 -170 -30 -209 -19 -16 5 -48 11 -70 14 -23 4 -72 12 -111 20 -38
8 -83 16 -100 19 -123 21 -165 30 -165 36 0 6 70 108 93 135 4 6 60 80 122
165 63 85 118 160 123 165 4 6 19 26 32 45 14 19 36 49 50 67 14 17 36 47 50
67 14 19 27 35 30 35 3 0 119 -153 257 -341z m-997 -463 c14 -3 39 -7 55 -10
54 -10 304 -56 327 -61 13 -2 55 -9 93 -16 39 -6 72 -13 74 -14 4 -4 -8 -15
-93 -87 -28 -23 -86 -73 -130 -110 -45 -38 -90 -76 -101 -85 -11 -10 -35 -29
-54 -45 l-33 -27 -120 187 c-66 104 -135 211 -154 240 -19 28 -34 53 -34 56 0
3 33 -2 73 -9 39 -8 83 -16 97 -19z m1597 -57 c-123 -190 -234 -364 -244 -381
-9 -17 -13 -15 -54 19 -24 20 -64 53 -88 73 -24 20 -49 41 -55 46 -15 14 -74
63 -125 105 -101 83 -106 89 -91 94 8 3 79 17 157 31 79 14 153 28 165 31 13
2 38 7 57 10 18 3 43 8 55 10 11 3 37 7 56 10 19 2 76 13 125 23 50 10 91 17
93 15 2 -1 -21 -40 -51 -86z m-793 -160 c33 -29 74 -65 91 -80 16 -14 40 -35
51 -45 37 -32 128 -110 153 -132 l24 -21 -382 0 c-306 0 -380 2 -369 13 7 6
45 39 83 72 39 33 88 76 110 96 65 60 170 149 174 149 2 0 31 -24 65 -52z"/>
</g>
</svg>
